<svg width="13" height="11" viewBox="0 0 13 11" fill="none" xmlns="http://www.w3.org/2000/svg">
<path d="M4.28224 10.13C6.71324 10.13 8.16924 8.349 8.16924 5.554V5.086C8.16924 2.291 6.63524 0.575 4.28224 0.575C1.94224 0.575 0.382238 2.304 0.382238 5.125V5.593C0.382238 8.388 1.91624 10.13 4.28224 10.13ZM4.32124 8.752C2.93024 8.752 2.12424 7.686 2.12424 5.58V5.112C2.12424 3.045 2.89124 1.927 4.29524 1.927C5.68624 1.927 6.44024 3.123 6.44024 5.099V5.554C6.44024 7.66 5.75124 8.752 4.32124 8.752ZM11.2135 10H12.9555V0.705H11.4085L9.25047 2.239V3.76L11.2135 2.421V10Z" fill="#007AFF"/>
</svg>
