<svg width="16" height="11" viewBox="0 0 16 11" fill="none" xmlns="http://www.w3.org/2000/svg">
<path d="M4.24757 10.13C6.67857 10.13 8.13457 8.349 8.13457 5.554V5.086C8.13457 2.291 6.60057 0.575 4.24757 0.575C1.90757 0.575 0.34757 2.304 0.34757 5.125V5.593C0.34757 8.388 1.88157 10.13 4.24757 10.13ZM4.28657 8.752C2.89557 8.752 2.08957 7.686 2.08957 5.58V5.112C2.08957 3.045 2.85657 1.927 4.26057 1.927C5.65157 1.927 6.40557 3.123 6.40557 5.099V5.554C6.40557 7.66 5.71657 8.752 4.28657 8.752ZM8.9948 10H15.7158V8.661H11.7638L13.8308 6.646C14.9358 5.58 15.6508 4.527 15.6508 3.318C15.6508 1.68 14.5068 0.575 12.5828 0.575C10.6198 0.575 9.3978 1.745 9.2808 3.773H10.8668C11.0228 2.46 11.6078 1.927 12.5308 1.927C13.4278 1.927 13.9218 2.473 13.9218 3.344C13.9218 4.228 13.3888 5.047 12.5048 5.983L8.9948 9.688V10Z" fill="#007AFF"/>
</svg>
