<svg width="16" height="11" viewBox="0 0 16 11" fill="none" xmlns="http://www.w3.org/2000/svg">
<path d="M3.95558 10.13C6.38658 10.13 7.84258 8.349 7.84258 5.554V5.086C7.84258 2.291 6.30858 0.575 3.95558 0.575C1.61558 0.575 0.0555782 2.304 0.0555782 5.125V5.593C0.0555782 8.388 1.58958 10.13 3.95558 10.13ZM3.99458 8.752C2.60358 8.752 1.79758 7.686 1.79758 5.58V5.112C1.79758 3.045 2.56458 1.927 3.96858 1.927C5.35958 1.927 6.11358 3.123 6.11358 5.099V5.554C6.11358 7.66 5.42458 8.752 3.99458 8.752ZM12.4598 10.13C14.5918 10.13 15.9438 9.064 15.9438 7.348C15.9438 6.113 15.2288 5.346 14.1498 5.099C15.0468 4.761 15.6578 4.124 15.6578 3.071C15.6578 1.693 14.5268 0.575 12.5898 0.575C10.6008 0.575 9.39181 1.81 9.30081 3.422H10.8348C10.9388 2.486 11.5758 1.888 12.5638 1.888C13.5258 1.888 14.0068 2.447 14.0068 3.201C14.0068 4.072 13.5258 4.566 12.4598 4.566H11.7968V5.801H12.5118C13.6428 5.801 14.1888 6.308 14.1888 7.322C14.1888 8.245 13.6298 8.83 12.4208 8.83C11.1728 8.83 10.6268 8.102 10.5358 7.127H8.96281C9.04081 8.908 10.2498 10.13 12.4598 10.13Z" fill="#007AFF"/>
</svg>
