<svg width="18" height="11" viewBox="0 0 18 11" fill="none" xmlns="http://www.w3.org/2000/svg">
<path d="M4.84132 10.13C7.27232 10.13 8.72832 8.349 8.72832 5.554V5.086C8.72832 2.291 7.19432 0.575 4.84132 0.575C2.50132 0.575 0.94132 2.304 0.94132 5.125V5.593C0.94132 8.388 2.47532 10.13 4.84132 10.13ZM4.88032 8.752C3.48932 8.752 2.68332 7.686 2.68332 5.58V5.112C2.68332 3.045 3.45032 1.927 4.85432 1.927C6.24532 1.927 6.99932 3.123 6.99932 5.099V5.554C6.99932 7.66 6.31032 8.752 4.88032 8.752ZM14.3986 10H16.0756V8.115H17.3236V6.828H16.0756V0.705H13.9046L9.79655 7.504V8.115H14.3986V10ZM11.6426 6.828L14.4246 2.018V6.828H11.6426Z" fill="#007AFF"/>
</svg>
