<svg width="122" height="30" viewBox="0 0 122 30" fill="none" xmlns="http://www.w3.org/2000/svg">
<path fill-rule="evenodd" clip-rule="evenodd" d="M13.3547 17.9225C13.3408 17.9048 13.3274 17.8851 13.3131 17.862C13.2716 17.7905 13.3245 17.3812 13.3677 17.2715C13.395 17.2014 13.3102 17.2325 13.3127 17.1303C13.3199 16.874 13.3371 16.5168 13.3178 16.2239C13.2989 15.9306 13.2729 15.6616 13.238 15.4893C13.2032 15.3158 13.0572 14.3349 13.0639 14.0378C13.0711 13.7399 12.9414 12.9662 12.9175 12.6258C12.9024 12.3981 12.7597 11.7955 12.7253 11.7055C12.6905 11.6152 12.636 11.595 12.5596 11.6845C12.529 11.7211 12.6343 12.2123 12.6385 12.8284C12.6402 13.0511 12.6125 13.2873 12.6209 13.5193C12.6456 14.2206 12.7169 14.8838 12.7258 15.0191C12.7463 15.3242 12.8822 15.7868 12.9301 16.2016C12.9607 16.4697 12.8806 16.8387 12.8969 16.998C12.9049 17.0765 12.8025 17.0139 12.8101 17.1039C12.8243 17.2665 12.9729 17.4606 12.9548 17.638C12.9364 17.8292 12.9422 17.9309 12.7513 17.9922C12.6293 18.0317 12.3779 18.1297 12.2529 18.1565C12.1275 18.183 11.8883 18.3221 11.8883 18.3221C11.8883 18.3221 12.1426 18.4499 12.2336 18.4759C12.3242 18.5016 12.4912 18.5045 12.5789 18.5394C12.7807 18.6213 12.8789 18.6697 12.8193 18.9878C12.8013 19.0827 12.6897 19.1332 12.6578 19.2525C12.6523 19.2731 12.6947 19.295 12.6893 19.316C12.5932 19.7001 12.453 20.206 12.6649 20.504C12.7048 20.5594 12.7845 20.601 12.8495 20.6036C12.9141 20.6061 13.0039 20.591 13.0862 20.53C13.1688 20.4699 13.2468 20.0997 13.2645 19.8358C13.2724 19.7148 13.2985 19.5992 13.2884 19.4807C13.2758 19.324 13.2813 18.8655 13.2854 18.7071C13.2884 18.5923 13.2771 18.5377 13.3467 18.5188C13.4491 18.4923 13.2771 18.2124 13.2909 18.0414C13.2959 17.9931 13.319 17.9511 13.3547 17.9225ZM17.0221 0.64456H7.67674V18.0048L0 28.7628H24.6992L17.0221 17.851V0.64456ZM16.2459 24.4458C16.1162 24.6302 15.7672 24.6794 15.5633 24.6937C15.2817 24.7135 14.1917 24.7454 14.1061 24.7622C13.9177 24.7996 13.3001 25.0925 13.2712 25.1244C13.2422 25.156 13.2448 25.156 13.2611 25.1942C13.2779 25.2316 13.5963 25.527 13.7088 25.6472C13.854 25.8031 14.2622 26.2339 14.2844 26.4394C14.3071 26.6453 14.2802 26.7663 14.0902 26.9184C13.9152 27.0575 13.7021 27.1685 13.4575 27.2529C13.2624 27.3197 13.0043 27.3912 12.7727 27.4214C12.5965 27.4454 12.3792 27.4324 12.1946 27.4042C12.1241 27.3941 12.0368 27.3744 11.9672 27.3639C11.8308 27.345 11.5535 27.3609 11.4872 27.363C10.9514 27.3719 10.4215 27.0588 10.3447 27.0008C10.1966 26.8882 10.1022 26.7629 10.046 26.6079C9.9902 26.4541 9.97846 26.07 10.041 25.9536C10.1035 25.8372 10.2512 25.6733 10.3867 25.6039C10.4849 25.5543 10.8717 25.369 10.9279 25.3371C11.0081 25.293 11.102 25.1513 11.0765 25.0606C11.0504 24.9702 11.0127 24.8836 10.8805 24.8177C10.6955 24.7265 10.4962 24.658 10.2713 24.6172C10.08 24.584 9.85846 24.5626 9.647 24.5437C9.37597 24.5197 9.07262 24.5172 8.79655 24.508C8.71683 24.5054 8.42356 24.4693 8.37321 24.4323C8.32286 24.3949 8.29895 24.3466 8.28552 24.2949C8.25657 24.1877 8.25405 24.0894 8.26328 23.9835C8.27797 23.8163 8.31237 23.6566 8.34007 23.4918C8.35265 23.4162 8.36398 23.3422 8.39251 23.2691C8.41223 23.2191 8.4458 23.1704 8.46384 23.1191C8.51251 22.9775 8.52593 22.8514 8.51125 22.7014C8.50747 22.6581 8.49195 22.6257 8.5016 22.5732C8.51125 22.5198 8.52677 22.4686 8.57796 22.4253C8.80452 22.2353 9.37932 21.6474 9.39485 21.6378C9.44519 21.6033 9.50183 21.581 9.56267 21.5663C9.59498 21.5583 9.64365 21.5512 9.67302 21.5445C9.79805 21.5138 9.9151 21.4684 9.99314 21.3718C10.3175 20.9872 10.6091 20.5716 10.9246 20.18C11.0206 20.0602 11.0949 19.9165 11.1553 19.7988C11.2061 19.7001 11.3412 19.4647 11.4574 19.2945C11.4809 19.2592 11.5522 19.0756 11.5678 19.0638C11.6189 19.0256 11.6777 19.0621 11.6655 19.018C11.6387 18.9214 11.3513 18.7848 11.2359 18.7083C11.1516 18.6537 11.0848 18.6217 11.0727 18.5079C11.0672 18.46 11.0815 18.4188 11.1062 18.3839C10.8914 18.3276 11.0014 18.1805 11.1167 18.0385C11.2472 17.8788 11.5422 17.638 11.7679 17.406C11.8505 17.3207 11.8992 17.2741 11.89 17.2173C11.8665 17.0744 11.7536 17.2535 11.7654 17.0412C11.7691 16.9828 11.7792 16.774 11.7599 16.5004C11.7427 16.2554 11.689 15.952 11.6584 15.633C11.5896 14.9144 11.5262 14.1206 11.4624 13.7617C11.3391 13.0658 10.9187 11.3992 10.7949 11.026C10.7492 10.8882 10.7567 10.7369 10.7064 10.5986C10.6816 10.5301 10.6451 10.4654 10.5902 10.4167C10.5277 10.362 10.4278 10.3654 10.377 10.3078C10.3519 10.2793 10.3384 10.2427 10.3259 10.207C10.213 9.88298 10.1366 9.54511 10.0582 9.21187C10.0095 9.00385 9.96209 8.795 9.91678 8.58656C9.89538 8.48823 9.88867 8.38695 9.89706 8.28693C9.91552 8.08018 9.96209 7.87552 9.97132 7.66667C9.97636 7.55237 9.97678 7.43806 9.97426 7.32376C9.97091 7.17542 9.94573 7.02035 9.95454 6.87285C9.98559 6.33705 9.98727 5.50036 10.148 5.2415C10.1677 5.20956 10.1966 5.18393 10.2306 5.16712C10.6435 4.957 11.097 4.92758 11.3139 4.68511C11.5367 4.43633 11.512 4.28673 11.512 4.08796C11.512 3.88877 11.3139 3.71521 11.2401 3.49122C11.1662 3.26766 11.2401 2.69488 11.3639 2.44694C11.4381 2.29776 11.6907 2.00192 11.8875 2.06957C11.9265 2.08302 11.9605 2.11034 12.0016 2.11832C12.1128 2.14185 12.2034 2.04772 12.3192 2.08302C12.406 2.10908 12.4866 2.15992 12.5575 2.21497C12.7367 2.35491 12.8839 2.56167 12.8969 2.7949C12.9221 3.24245 12.427 3.96357 12.4518 4.08796C12.4765 4.21235 12.7732 4.46112 12.8722 4.4855C13.0811 4.53887 13.2884 4.60064 13.4957 4.66242C13.7017 4.72377 14.0503 4.75445 14.1351 4.99314C14.1846 5.13056 14.2068 5.29319 14.2374 5.43775C14.2752 5.61845 14.331 5.91513 14.3604 6.09752C14.3671 6.1408 14.3734 6.18324 14.3797 6.22653C14.4296 6.5749 14.2811 7.59439 14.4048 7.74357C14.5282 7.89233 14.7266 7.94234 14.7019 8.16675C14.6767 8.38989 14.652 8.66388 14.7019 8.83744C14.7514 9.01184 14.8005 9.33542 14.7757 9.55898C14.751 9.78297 14.7757 9.85777 14.6767 9.98174C14.5781 10.1061 14.3801 10.0561 14.331 10.1809C14.2811 10.3053 14.3272 12.1363 14.2811 12.991C14.2588 13.4163 14.4011 14.4265 14.4258 14.6501C14.4506 14.8737 14.4795 15.8696 14.4871 16.0352C14.4959 16.2142 14.5529 16.613 14.6025 16.911C14.6239 17.0391 14.6494 17.2766 14.6259 17.3077C14.6025 17.3392 14.5655 17.3098 14.5592 17.335C14.5383 17.4203 14.5773 17.5539 14.6104 17.63C14.6843 17.804 15.0657 18.3272 15.0161 18.5259C15.0044 18.5726 14.9864 18.6087 14.9637 18.6369C15.0031 18.6802 15.0161 18.7293 15.0115 18.7928C14.9998 18.9617 14.7845 19.1033 14.7082 19.1294C14.628 19.1563 14.7069 19.2605 14.7078 19.3899C14.709 19.6055 14.7363 19.8854 14.7493 19.9472C14.7665 20.0274 14.9008 20.3716 14.9285 20.4489C14.9603 20.538 15.244 21.057 15.3342 21.231C15.4193 21.394 15.5645 21.5642 15.7118 21.6777C15.8431 21.7794 15.8196 21.7197 15.9748 21.7092C16.1171 21.7 16.2278 21.8811 16.2513 21.9908C16.274 22.1 16.3382 22.2622 16.3487 22.3635C16.3596 22.4656 16.3965 22.6043 16.402 22.6699C16.407 22.7304 16.3894 22.7619 16.3143 22.8497C16.2392 22.9384 16.4045 23.528 16.4368 23.6696C16.4674 23.8112 16.3655 24.276 16.2459 24.4458ZM29.7885 14.1492C30.2417 14.6589 30.8395 15.0418 31.5838 15.296C32.3281 15.5511 33.1668 15.6788 34.1016 15.6788C35.0863 15.6788 35.949 15.5435 36.6895 15.2737C37.4296 15.0031 38.0174 14.6169 38.4525 14.1126C38.8876 13.6088 39.1456 13.0528 39.2287 12.4435C39.3113 11.8345 39.3529 10.7987 39.3529 9.335V6.84259C39.3529 5.34362 39.3092 4.29345 39.2232 3.69336C39.1372 3.09368 38.8674 2.53897 38.4147 2.02923C37.9616 1.51907 37.3633 1.13707 36.6194 0.881993C35.876 0.627331 35.0364 0.5 34.102 0.5C33.1173 0.5 32.2543 0.634475 31.5142 0.904685C30.7737 1.1749 30.1863 1.56151 29.7512 2.06537C29.3165 2.56923 29.0576 3.12562 28.9746 3.73496C28.8919 4.34346 28.8508 5.37976 28.8508 6.84301V9.33542C28.8508 10.8352 28.894 11.8846 28.98 12.4847C29.0665 13.0847 29.3358 13.6399 29.7885 14.1492ZM33.3896 4.54937C33.3896 3.79926 33.4526 3.34835 33.5789 3.19496C33.7043 3.04199 33.886 2.96551 34.123 2.96551C34.4037 2.96551 34.5883 3.06006 34.6785 3.24875C34.7687 3.43743 34.8132 3.87112 34.8132 4.54937V11.2433C34.8132 12.1014 34.77 12.6439 34.684 12.8717C34.5975 13.0999 34.3999 13.2138 34.0907 13.2138C33.7886 13.2138 33.5965 13.1146 33.5138 12.9167C33.4312 12.7187 33.3892 12.1972 33.3892 11.3509V4.54937H33.3896ZM45.5851 9.25515H48.3886V6.48329H45.5851V3.72151H48.733V0.80593H41.0454V15.3729H45.5846V9.25515H45.5851ZM57.1759 6.48329H54.3724V3.72151H57.5204V0.80593H49.8331V15.3729H54.3724V9.25515H57.1759V6.48329ZM66.4923 12.4578H63.1597V9.25515H65.9951V6.48329H63.1597V3.72151H66.1902V0.80593H58.6209V15.3729H66.4927V12.4578H66.4923ZM71.5921 8.75129L73.9529 15.3733H77.9321V0.80593H74.1363V7.36494L71.5921 0.80593H67.7963V15.3729H71.5921V8.75129ZM87.6244 15.1796C88.4585 14.8472 89.0215 14.435 89.3123 13.9429C89.603 13.4508 89.7482 12.6864 89.7482 11.6484C89.7482 10.2209 89.486 9.18623 88.9624 8.54412C88.4362 7.90242 87.1637 7.08128 85.1427 6.08071C84.4387 5.73317 84.0111 5.43565 83.8601 5.18981C83.7027 4.94355 83.6239 4.57753 83.6239 4.09174C83.6239 3.71353 83.6943 3.43113 83.8336 3.24497C83.9746 3.05922 84.181 2.96593 84.4542 2.96593C84.7059 2.96593 84.8859 3.03443 84.9933 3.17269C85.1016 3.31094 85.1548 3.632 85.1548 4.13544V5.21502H89.371V4.6393C89.371 3.48156 89.2368 2.66126 88.967 2.17883C88.6972 1.69599 88.1467 1.29508 87.3164 0.977386C86.487 0.659689 85.4817 0.50084 84.3031 0.50084C83.2249 0.50084 82.3043 0.646662 81.5424 0.937043C80.7805 1.22785 80.2296 1.63127 79.8881 2.14732C79.5465 2.66336 79.3749 3.47862 79.3749 4.59434C79.3749 5.36841 79.4962 6.0038 79.7362 6.5022C79.9779 7.00018 80.2812 7.38973 80.6483 7.67129C81.0146 7.95327 81.7618 8.40628 82.8905 9.02991C84.0187 9.64765 84.7269 10.0889 85.0147 10.3524C85.295 10.6163 85.4351 11.1777 85.4351 12.035C85.4351 12.425 85.3613 12.7187 85.214 12.9167C85.0672 13.1146 84.8427 13.2138 84.5406 13.2138C84.2389 13.2138 84.0283 13.1356 83.9096 12.9793C83.7917 12.8238 83.7317 12.4729 83.7317 11.9266V10.1545H79.5163V11.108C79.5163 12.2002 79.6489 13.0427 79.9145 13.6365C80.1809 14.2303 80.7431 14.7195 81.6024 15.1031C82.4604 15.4872 83.498 15.6793 84.7122 15.6793C85.8203 15.6793 86.7911 15.5133 87.6244 15.1796ZM95.7119 0.80593H91.1722V15.3729H95.7119V0.80593ZM106.016 15.3733L108.327 0.80635H103.54L103.225 3.51476C102.961 5.69199 102.711 8.18398 102.477 10.9916C102.24 8.21423 101.842 4.81916 101.287 0.80635H96.4986L99.1217 15.3733H106.016ZM113.632 9.25515H116.467V6.48329H113.632V3.72151H116.661V0.80593H109.092V15.3729H116.964V12.4573H113.632V9.25515H113.632ZM120.349 0.880312H120.337C119.42 0.884514 118.683 1.63169 118.683 2.55116C118.687 3.46559 119.432 4.20856 120.349 4.20478C121.262 4.20478 122.004 3.45803 122 2.53855C121.999 1.62371 121.258 0.884514 120.349 0.880312ZM120.386 3.79758H120.349C119.632 3.78497 119.063 3.19706 119.075 2.47972C119.088 1.79096 119.637 1.22869 120.328 1.20809H120.336C121.031 1.2123 121.593 1.78718 121.585 2.48392V2.51292C121.609 3.20126 121.069 3.77656 120.386 3.79758ZM120.714 2.55536V2.53393C120.902 2.49653 121.04 2.33684 121.048 2.14816C121.057 2.01368 120.994 1.88341 120.882 1.80399C120.717 1.69893 120.521 1.65312 120.329 1.67371C120.119 1.67371 119.909 1.69094 119.705 1.72414V3.34456H120.081V2.70203H120.258C120.466 2.70203 120.567 2.78145 120.592 2.94954C120.618 3.08822 120.659 3.22228 120.722 3.34414H121.12C121.061 3.21807 121.02 3.08822 120.998 2.94954C120.953 2.73186 120.873 2.60117 120.714 2.55536ZM120.269 2.4335H120.089V1.97166C120.16 1.95485 120.227 1.94645 120.299 1.95065C120.537 1.95065 120.646 2.0473 120.646 2.19859C120.646 2.36626 120.479 2.4335 120.269 2.4335ZM111.008 24.674L109.503 19.0302H104.506L107.386 27.0584C107.663 27.811 107.692 27.9593 107.694 27.9816C107.694 28.0094 107.694 28.0816 107.481 28.1241C107.263 28.1665 106.757 28.1875 105.975 28.1875H105.815V30H109.078C110.5 30 111.551 29.9386 112.204 29.8168C112.871 29.6936 113.4 29.4974 113.781 29.2318C114.168 28.9603 114.45 28.6124 114.617 28.1955C114.778 27.7963 114.97 27.0714 115.206 25.9805L116.711 19.0294H111.741L111.008 24.674ZM116.314 19.35L114.894 25.9136C114.666 26.9722 114.472 27.6992 114.321 28.0766C114.176 28.435 113.934 28.7347 113.599 28.9692C113.256 29.2083 112.768 29.3877 112.147 29.5029C111.512 29.6205 110.48 29.6802 109.079 29.6802H106.135V28.5077C106.857 28.5048 107.317 28.4821 107.542 28.4376C107.953 28.3577 108.013 28.1174 108.013 27.9816C108.013 27.932 108.013 27.8396 107.687 26.9491L104.961 19.35H109.257L111.116 26.32L112.023 19.35H116.314ZM39.6923 24.0894C39.206 23.7167 38.231 23.3347 36.7105 22.9216C35.6087 22.6199 34.8728 22.3887 34.5224 22.2328C34.0815 22.0374 33.9766 21.9088 33.9523 21.863C33.9116 21.7878 33.8637 21.6306 33.8637 21.3091C33.8637 21.1478 33.9116 21.0385 34.0135 20.9633C34.1285 20.8788 34.3143 20.836 34.5652 20.836C34.9856 20.836 35.0838 20.92 35.104 20.9456C35.1275 20.9759 35.2034 21.1175 35.2034 21.6689V22.3349H40.0586V21.6331C40.0586 21.1394 40.0116 20.7813 39.9142 20.5384C39.8115 20.2838 39.5417 20.0228 39.0898 19.7446C38.6581 19.4778 38.035 19.2609 37.2383 19.1008C36.4512 18.942 35.4832 18.8625 34.3626 18.8625C33.2336 18.8625 32.2266 18.9605 31.3694 19.1546C30.4951 19.3521 29.8615 19.6433 29.4869 20.0173C29.1025 20.401 28.9074 20.9948 28.9074 21.7819C28.9074 22.3442 29.087 22.838 29.4403 23.2477C29.7927 23.657 30.7162 24.0907 32.2635 24.5739C34.4683 25.2547 35.0817 25.4863 35.2051 25.5573C35.3351 25.6359 35.4065 25.8846 35.4065 26.2578C35.4065 26.5213 35.3557 26.6957 35.2592 26.7638C35.1803 26.8197 34.9999 26.8856 34.5913 26.8856C34.3114 26.8856 34.1209 26.8302 34.0404 26.7234C33.9888 26.6554 33.9019 26.4503 33.9019 25.8418V25.0908H29.0463V25.701C29.0463 26.5175 29.2347 27.1411 29.6064 27.5547C29.9782 27.9669 30.6285 28.2817 31.5939 28.5178C32.527 28.7452 33.6628 28.8603 34.9701 28.8603C36.1516 28.8603 37.177 28.7532 38.0174 28.5414C38.8762 28.3258 39.5014 28.0102 39.8765 27.6005C40.2575 27.1857 40.4505 26.5696 40.4505 25.7716C40.4513 25.0421 40.1958 24.476 39.6923 24.0894ZM39.642 27.3845C39.3097 27.7463 38.7378 28.032 37.9406 28.2312C37.125 28.4363 36.1256 28.5401 34.9705 28.5401C33.6884 28.5401 32.5778 28.4275 31.6698 28.2069C30.7808 27.99 30.1666 27.6984 29.8439 27.3399C29.5263 26.9878 29.3656 26.4364 29.3656 25.7014V25.4115H33.5814V25.8422C33.5814 26.3936 33.646 26.7348 33.7849 26.918C33.9325 27.1122 34.1956 27.2063 34.5896 27.2063C34.9903 27.2063 35.2693 27.1474 35.4413 27.026C35.6322 26.8919 35.7249 26.6411 35.7249 26.2582C35.7249 25.7477 35.6087 25.4283 35.3666 25.282C35.2349 25.2055 34.7784 25.0177 32.3571 24.2688C30.889 23.81 29.9887 23.3969 29.6815 23.0388C29.3748 22.6833 29.2263 22.2719 29.2263 21.7823C29.2263 21.0835 29.3895 20.5653 29.7117 20.2443C30.0432 19.9131 30.6243 19.6517 31.4391 19.4673C32.2728 19.2782 33.2562 19.1823 34.3618 19.1823C35.4618 19.1823 36.4075 19.2609 37.1745 19.4151C37.9343 19.5677 38.5217 19.7707 38.9211 20.0178C39.4024 20.3149 39.5656 20.5304 39.6172 20.659C39.6978 20.8599 39.7389 21.1873 39.7389 21.6336V22.0156H35.5227V21.6693C35.5227 21.0394 35.4279 20.8431 35.3565 20.7507C35.2328 20.5905 34.9814 20.5162 34.5652 20.5162C34.2405 20.5162 33.998 20.5775 33.8243 20.7048C33.638 20.8418 33.5436 21.0457 33.5436 21.3091C33.5436 21.6252 33.5851 21.8567 33.6703 22.0151C33.7614 22.1849 33.9909 22.3475 34.3924 22.5257C34.762 22.6904 35.4925 22.9203 36.6257 23.2304C38.0854 23.6267 39.0512 24.0016 39.4972 24.3432C39.9235 24.671 40.1312 25.1379 40.1312 25.772C40.1316 26.4873 39.9667 27.0298 39.642 27.3845ZM102.972 26.7882C102.963 26.7776 102.87 26.6541 102.87 25.8914V21.0532H104.251V19.2555H102.87V17.7842H97.4199V19.2555H96.3169V21.0532H97.4199V25.6375C97.4199 26.5957 97.4682 27.1924 97.5689 27.4639C97.6754 27.753 97.941 28.0068 98.3555 28.2199C98.7512 28.422 99.2127 28.554 99.7288 28.6094C100.229 28.6637 101.074 28.691 102.241 28.691H104.466V26.8642H104.306C103.204 26.8642 103.001 26.8016 102.972 26.7882ZM104.146 28.3708H102.241C101.086 28.3708 100.252 28.3443 99.7632 28.2909C99.287 28.2396 98.8619 28.1199 98.5003 27.9345C98.1592 27.7597 97.9465 27.5639 97.8684 27.3521C97.8084 27.1933 97.7388 26.7663 97.7388 25.6375V20.7334H96.6366V19.5757H97.7388V18.104H102.55V19.5757H103.931V20.7334H102.55V25.8909C102.55 26.7802 102.668 26.9756 102.797 27.0554C102.896 27.1164 103.136 27.1785 104.146 27.1844V28.3708ZM47.6296 20.5157C47.21 20.5157 46.9591 20.5947 46.8404 20.7633C46.7678 20.8658 46.6843 21.0793 46.6843 21.8227V22.6657H48.4989V21.8227C48.4989 21.2949 48.4461 20.9696 48.3328 20.7981C48.209 20.6099 47.9719 20.5157 47.6296 20.5157ZM48.1792 22.345H47.0036V21.8227C47.0036 21.1389 47.0783 20.9797 47.1009 20.9473C47.1148 20.9288 47.2016 20.8355 47.6296 20.8355C47.7869 20.8355 47.9904 20.8599 48.0668 20.9742C48.1091 21.0381 48.1796 21.2335 48.1796 21.8227V22.345H48.1792ZM50.992 19.3231C50.0471 19.0168 48.835 18.8617 47.3892 18.8617C46.2068 18.8617 45.1441 18.9899 44.2294 19.2433C43.2984 19.5026 42.6154 19.8841 42.1996 20.3787C41.7796 20.8776 41.5665 21.5617 41.5665 22.4139V25.1379C41.5665 25.8645 41.6588 26.4062 41.8489 26.7953C42.0385 27.184 42.3788 27.5412 42.8608 27.8585C43.3362 28.1703 44.0046 28.4182 44.8479 28.5952C45.6828 28.7704 46.6575 28.8599 47.7437 28.8599C48.866 28.8599 49.8142 28.7687 50.5615 28.5905C51.3175 28.4107 51.9532 28.135 52.4495 27.7732C52.9593 27.4004 53.2773 27.0537 53.4208 26.7138C53.5618 26.3801 53.6302 25.9254 53.6302 25.3211V24.4714H48.4582V25.8632C48.4582 26.3923 48.371 26.6117 48.2975 26.7024C48.2006 26.8226 47.974 26.8856 47.6426 26.8856C47.3132 26.8856 47.1807 26.815 47.1274 26.7554C47.09 26.7142 47.0036 26.5629 47.0036 26.046V24.1861H53.6297V22.7871C53.6297 21.8504 53.4288 21.1087 53.0336 20.583C52.6396 20.0585 51.9528 19.6341 50.992 19.3231ZM53.3105 23.8663H46.6843V26.0464C46.6843 26.5205 46.7498 26.8146 46.8903 26.9701C47.033 27.1294 47.2788 27.2059 47.6426 27.2059C48.0856 27.2059 48.3814 27.1075 48.5455 26.9037C48.702 26.7112 48.7779 26.3704 48.7779 25.8632V24.7912H53.3105V25.3215C53.3105 25.8733 53.2488 26.3011 53.1267 26.589C53.0075 26.8705 52.7164 27.1823 52.2611 27.5143C51.7992 27.8526 51.203 28.1102 50.4876 28.2808C49.7652 28.4527 48.8417 28.5401 47.7441 28.5401C46.6793 28.5401 45.7269 28.4527 44.9133 28.2829C44.1095 28.1148 43.478 27.8816 43.0362 27.5916C42.6024 27.3063 42.2995 26.9907 42.1358 26.6549C41.9697 26.315 41.8858 25.8048 41.8858 25.1383V22.4144C41.8858 21.6403 42.0737 21.0251 42.4442 20.5855C42.818 20.1417 43.4474 19.7938 44.3155 19.5517C45.202 19.3063 46.2358 19.1815 47.3892 19.1815C48.8014 19.1815 49.9808 19.3319 50.8938 19.6278C51.7904 19.919 52.4248 20.3048 52.7789 20.7754C53.1317 21.244 53.3109 21.9218 53.3109 22.7871V23.8663H53.3105ZM61.8565 25.8002C61.8565 26.357 61.7722 26.5927 61.7017 26.6923C61.6115 26.8209 61.4189 26.8852 61.1286 26.8852C60.8781 26.8852 60.6969 26.8209 60.5756 26.6877C60.4518 26.5524 60.3893 26.3368 60.3893 26.046V21.6403C60.3893 21.1415 60.4682 20.9956 60.5026 20.9566C60.5702 20.8784 60.7384 20.836 60.9771 20.836C61.2184 20.836 61.3866 20.8847 61.4626 20.9776C61.51 21.0368 61.5905 21.2003 61.5905 21.6403V22.877H66.7377V22.7165C66.7377 21.8117 66.5707 21.0978 66.2418 20.5952C65.9116 20.0879 65.2479 19.6656 64.2711 19.3408C63.3133 19.0231 62.1456 18.8617 60.8001 18.8617C59.4453 18.8617 58.2772 19.0243 57.3286 19.3445C56.3494 19.6757 55.7221 20.0484 55.4129 20.4838C55.107 20.9133 54.9526 21.5478 54.9526 22.3711V25.0253C54.9526 25.9649 55.1393 26.7054 55.5081 27.2256C55.8769 27.7467 56.5071 28.1552 57.3811 28.4397C58.2378 28.7183 59.4096 28.8599 60.8638 28.8599C62.0038 28.8599 62.9768 28.7569 63.7542 28.5548C64.5409 28.3506 65.1908 28.0421 65.6842 27.637C66.1873 27.2239 66.4914 26.8083 66.5871 26.4024C66.6781 26.0191 66.7289 25.4426 66.7377 24.6882L66.7394 24.5265H61.857V25.8002H61.8565ZM62.1762 25.8002V24.8475H66.4147C66.4025 25.498 66.3547 25.996 66.2762 26.3293C66.1961 26.665 65.9288 27.0222 65.4811 27.3895C65.0238 27.7652 64.415 28.0526 63.6741 28.2447C62.9218 28.4405 61.9753 28.5393 60.863 28.5393C59.4419 28.5393 58.3037 28.4027 57.4788 28.135C56.672 27.8724 56.0959 27.5038 55.7674 27.0407C55.4381 26.5759 55.2711 25.8977 55.2711 25.0253V22.3711C55.2711 21.6155 55.4062 21.0436 55.6726 20.6691C55.9378 20.296 56.5293 19.9522 57.4301 19.6475C58.3465 19.3382 59.4797 19.1811 60.7997 19.1811C62.1108 19.1811 63.2449 19.3366 64.17 19.645C65.0771 19.9463 65.6834 20.3241 65.9745 20.7696C66.2498 21.1911 66.3983 21.7911 66.4155 22.5568H61.9102V21.6399C61.9102 21.2226 61.8448 20.9393 61.7088 20.7738C61.5679 20.6015 61.322 20.5153 60.9775 20.5153C60.6301 20.5153 60.3965 20.591 60.2614 20.7464C60.1309 20.8969 60.0704 21.1805 60.0704 21.6399V26.0456C60.0704 26.4188 60.1611 26.707 60.3402 26.9029C60.5232 27.1037 60.7887 27.205 61.129 27.205C61.5293 27.205 61.8095 27.0949 61.9635 26.8768C62.1066 26.6743 62.1762 26.3208 62.1762 25.8002ZM74.7115 25.4762C74.7115 26.4772 74.6486 26.7087 74.6205 26.7621C74.61 26.7827 74.5353 26.8856 74.0855 26.8856C73.6756 26.8856 73.5879 26.7898 73.5699 26.7608C73.5476 26.7209 73.4725 26.5184 73.4725 25.5468V19.0306H68.0346V25.49C68.0346 26.3129 68.0648 26.8499 68.1273 27.1323C68.1928 27.4311 68.3577 27.719 68.6182 27.9875C68.8771 28.2552 69.2778 28.4708 69.8089 28.6275C70.3275 28.7813 70.9866 28.8603 71.7674 28.8603C72.4559 28.8603 73.0744 28.778 73.6055 28.6166C74.0054 28.496 74.3612 28.3275 74.6691 28.1157L74.6037 28.691H80.1499V19.0306H74.7119V25.4762H74.7115ZM74.9058 26.9075C74.9641 26.7928 75.0304 26.5272 75.0304 25.4762V19.35H79.8293V28.3708H74.9616L75.077 27.358L74.7648 27.6353C74.4287 27.9333 74.0083 28.1598 73.5137 28.3102C73.0123 28.4619 72.4236 28.5397 71.7674 28.5397C71.0177 28.5397 70.3892 28.4657 69.9 28.3203C69.4221 28.1795 69.0684 27.9925 68.8477 27.7648C68.6295 27.5391 68.4919 27.3038 68.4395 27.0638C68.3837 26.8079 68.3543 26.2784 68.3543 25.49V19.3504H73.1533V25.5468C73.1533 26.5528 73.2296 26.8104 73.2951 26.923C73.4075 27.113 73.6655 27.2054 74.0859 27.2054C74.542 27.2054 74.8017 27.1113 74.9058 26.9075ZM91.0468 18.8033H95.7375V17.0013H91.0468V18.8033ZM91.3652 17.3215H95.4173V18.4835H91.3652V17.3215ZM87.1713 19.9413L87.321 19.0306H81.8546V28.691H87.2925V24.8429C87.2925 23.7465 87.3689 23.3263 87.4335 23.1678C87.5145 22.9644 87.7549 22.7972 88.1446 22.6728C88.5667 22.5371 89.2443 22.4686 90.1606 22.4686H90.3205V18.8558L90.1548 18.8621C88.9179 18.9071 87.9164 19.2693 87.1713 19.9413ZM90.0012 22.1492C89.1327 22.1576 88.4744 22.2307 88.0477 22.3673C87.5627 22.5228 87.2569 22.7518 87.1373 23.0481C87.0265 23.3204 86.9732 23.9083 86.9732 24.8429V28.3712H82.1751V19.35H86.9443L86.6787 20.9645L87.0525 20.522C87.7326 19.7165 88.7241 19.2693 90.0008 19.1895V22.1492H90.0012ZM91.0468 28.6166H95.7375V19.0525H91.0468V28.6166ZM91.3652 19.3723H95.4173V28.2964H91.3652V19.3723Z" fill="#B31B2C"/>
</svg>
