<svg width="44" height="56" viewBox="0 0 44 56" fill="none" xmlns="http://www.w3.org/2000/svg">
<path d="M30.75 21.0005L20.5217 32.4915C20.1504 32.9087 19.5093 32.9408 19.0981 32.5628L15 28.7959M43 33.9666V8.6073C43 7.99906 42.4667 7.52163 41.8597 7.56009C38.6096 7.766 29.1271 7.71104 22.8058 0.924382C22.3746 0.461404 21.6254 0.461404 21.1942 0.924382C14.8729 7.71104 5.39043 7.766 2.14035 7.56009C1.53332 7.52163 1 7.99906 1 8.6073V33.9666C0.999908 36.1697 1.56705 38.3371 2.64893 40.2684C3.73081 42.1996 5.29245 43.8321 7.18927 45.0149L21.4709 53.9205C21.7947 54.1225 22.2053 54.1225 22.5291 53.9205L36.8107 45.0149C38.7075 43.8321 40.2692 42.1996 41.3511 40.2684C42.4329 38.3371 43.0001 36.1697 43 33.9666Z" stroke="#7589A5" stroke-width="2" stroke-linecap="round" stroke-linejoin="round"/>
</svg>
